<mxfile host="app.diagrams.net" modified="2024-05-09T02:24:29.264Z" agent="Mozilla/5.0 (Windows NT 10.0; Win64; x64) AppleWebKit/537.36 (KHTML, like Gecko) Chrome/124.0.0.0 Safari/537.36" version="24.2.1" etag="tlzq14xKkNzLcTmSDeQQ" type="github">
  <diagram name="Trang-1" id="fx4xgaFJXBgBdHPYIMws">
    <mxGraphModel>
      <root>
        <mxCell id="0" />
        <mxCell id="1" parent="0" />
      </root>
    </mxGraphModel>
  </diagram>
</mxfile>
